# xmcd
#
# Track frame offsets: 
#        150
#        37225
#        56985
#        94562
#        119327
#        162240
#        193995
#        205400
#
# Disc length: 3428 seconds
#
# Revision: 13
# Processed by: cddbd v1.5.2PL0 Copyright (c) Steve Scherf et al.
# Submitted via: ExactAudioCopy v0.99pb5
#
DISCID=780d6208
DTITLE=Dream Theater - Images And Words
DYEAR=1992
DGENRE=Progressive Metal
TTITLE0=Pull me Under
TTITLE1=Another Day
TTITLE2=Take the Time
TTITLE3=Surrounded
TTITLE4=Metropolis Part 1: The Miracle and the Sleeper
TTITLE5=Under a Glass Moon
TTITLE6=Wait for Sleep
TTITLE7=Learning to Live
EXTD=
EXTT0=
EXTT1=
EXTT2=
EXTT3=
EXTT4=
EXTT5=
EXTT6=
EXTT7=
PLAYORDER=
